<?xml version="1.0" encoding="UTF-8"?>
<svg xmlns="http://www.w3.org/2000/svg" width="1200" height="700" viewBox="0 0 1200 700">
  <rect width="1200" height="700" fill="#0f172a" rx="32"/>
  <text x="90" y="90" fill="#e2e8f0" font-size="42" font-family="Georgia, serif" font-weight="700">Evolución de cooperación y defección</text>
  <text x="90" y="130" fill="#94a3b8" font-size="24" font-family="Arial, sans-serif">Comparación visual entre un sendero de valor acumulado cooperativo y uno de castigo mutuo.</text>
  <line x1="110" y1="560" x2="1090" y2="560" stroke="#475569" stroke-width="4"/>
  <line x1="110" y1="560" x2="110" y2="150" stroke="#475569" stroke-width="4"/>
  <path d="M120 520 C250 500 310 450 390 390 C470 330 560 290 640 240 C720 190 840 150 1060 110" fill="none" stroke="#22c55e" stroke-width="10" stroke-linecap="round"/>
  <path d="M120 500 C240 470 340 470 430 500 C520 530 650 560 760 575 C870 590 960 605 1060 620" fill="none" stroke="#ef4444" stroke-width="10" stroke-linecap="round"/>
  <circle cx="1060" cy="110" r="10" fill="#22c55e"/>
  <circle cx="1060" cy="620" r="10" fill="#ef4444"/>
  <rect x="780" y="180" width="300" height="88" rx="18" fill="#052e16" opacity="0.95"/>
  <text x="810" y="220" fill="#dcfce7" font-size="28" font-family="Arial, sans-serif" font-weight="700">Cooperación sostenida</text>
  <text x="810" y="252" fill="#bbf7d0" font-size="20" font-family="Arial, sans-serif">Más confianza, más valor y mejores incentivos</text>
  <rect x="760" y="470" width="320" height="88" rx="18" fill="#450a0a" opacity="0.95"/>
  <text x="790" y="510" fill="#fecaca" font-size="28" font-family="Arial, sans-serif" font-weight="700">Defección repetida</text>
  <text x="790" y="542" fill="#fca5a5" font-size="20" font-family="Arial, sans-serif">Castigo mutuo, caída de valor y desgaste</text>
  <text x="525" y="640" fill="#94a3b8" font-size="22" font-family="Arial, sans-serif">Rondas e iteraciones</text>
  <text x="36" y="360" fill="#94a3b8" font-size="22" font-family="Arial, sans-serif" transform="rotate(-90 36,360)">Valor acumulado</text>
</svg>
